<?xml version="1.0" encoding="UTF-8" standalone="no"?>
<svg
   xmlns:dc="http://purl.org/dc/elements/1.1/"
   xmlns:cc="http://creativecommons.org/ns#"
   xmlns:rdf="http://www.w3.org/1999/02/22-rdf-syntax-ns#"
   xmlns:svg="http://www.w3.org/2000/svg"
   xmlns="http://www.w3.org/2000/svg"
   id="svg8"
   version="1.1"
   viewBox="0 0 220.875 29.562"
   height="29.562"
   width="220.875">
  <metadata
     id="metadata14">
    <rdf:RDF>
      <cc:Work
         rdf:about="">
        <dc:format>image/svg+xml</dc:format>
        <dc:type
           rdf:resource="http://purl.org/dc/dcmitype/StillImage" />
        <dc:title></dc:title>
      </cc:Work>
    </rdf:RDF>
  </metadata>
  <defs
     id="defs12">
    <clipPath
       clipPathUnits="userSpaceOnUse"
       id="clipPath3729">
      <path
         d="M 0,595.276 H 841.89 V 0 H 0 Z"
         id="path3727" />
    </clipPath>
  </defs>
  <g
     id="g3721"
     transform="matrix(0.08611025,0,0,-0.08611025,168.48404,40.267949)">
    <g
       id="g3723">
      <g
         id="g3725"
         clip-path="url(#clipPath3729)">
        <g
           id="g3731"
           transform="translate(578.9727,231.3584)">
          <path
             d="m 0,0 c 0,-0.695 -0.566,-1.262 -1.262,-1.262 h -66.043 v -81.277 c 0,-3.566 -2.902,-6.469 -6.468,-6.469 h -47.254 v 86.253 c 0,3.314 -2.687,6 -6,6 -3.314,0 -6,-2.686 -6,-6 v -86.253 h -50.001 v 86.253 c 0,3.314 -2.686,6 -6,6 -3.313,0 -6,-2.686 -6,-6 V -89.008 H -238.5 c -3.567,0 -6.469,2.903 -6.469,6.469 v 81.277 h -69.824 c -0.696,0 -1.262,0.567 -1.262,1.262 v 220.305 c 0,0.695 0.566,1.261 1.262,1.261 H -1.262 C -0.566,221.566 0,221 0,220.305 Z m -1.262,233.566 h -313.531 c -7.313,0 -13.262,-5.949 -13.262,-13.261 V 0 c 0,-7.312 5.949,-13.262 13.262,-13.262 h 57.824 v -69.277 c 0,-10.184 8.285,-18.469 18.469,-18.469 h 164.727 c 10.183,0 18.468,8.285 18.468,18.469 v 69.277 H -1.262 C 6.051,-13.262 12,-7.312 12,0 v 220.305 c 0,7.312 -5.949,13.261 -13.262,13.261"
             style="fill:#000000;fill-opacity:1;fill-rule:nonzero;stroke:none;stroke-width:262.45423745;stroke-miterlimit:4;stroke-dasharray:none"
             id="path3733" />
        </g>
        <g
           id="g3735"
           transform="translate(481.9453,311.9951)">
          <path
             d="M 0,0 C -19.851,0 -36,16.149 -36,36 -36,55.851 -19.851,72 0,72 19.851,72 36,55.851 36,36 36,16.149 19.851,0 0,0 m -122,0 c -19.851,0 -36,16.149 -36,36 0,19.851 16.149,36 36,36 19.85,0 36,-16.149 36,-36 0,-19.851 -16.15,-36 -36,-36 M 118.338,41.304 H 47.7 C 45.051,65.284 24.674,84 0,84 -24.675,84 -45.052,65.284 -47.701,41.304 H -74.3 C -76.949,65.284 -97.327,84 -122,84 c -24.674,0 -45.052,-18.716 -47.701,-42.696 h -70.637 c -3.314,0 -6,-2.686 -6,-6 0,-3.313 2.686,-6 6,-6 h 70.815 C -166.254,5.997 -146.195,-12 -122,-12 c 24.194,0 44.253,17.997 47.522,41.304 h 26.955 C -44.255,5.997 -24.195,-12 0,-12 24.194,-12 44.254,5.997 47.522,29.304 h 70.816 c 3.313,0 6,2.687 6,6 0,3.314 -2.687,6 -6,6"
             style="fill:#000000;fill-opacity:1;fill-rule:nonzero;stroke:none;stroke-width:262.45423745;stroke-miterlimit:4;stroke-dasharray:none"
             id="path3737" />
        </g>
      </g>
    </g>
  </g>
  <g
     id="text3744"
     style="font-style:normal;font-weight:normal;font-size:28.5421772px;line-height:1.25;font-family:sans-serif;letter-spacing:0px;word-spacing:0px;fill:#000000;fill-opacity:1;stroke:none;stroke-width:0.71355444"
     aria-label="Webster Crew">
    <path
       id="path825"
       style="font-style:normal;font-variant:normal;font-weight:normal;font-stretch:normal;font-size:27.19634056px;font-family:'Nova Square';-inkscape-font-specification:'Nova Square';stroke-width:0.71355444"
       d="m 8.8405336,24.867334 q -4.6478121,0 -4.6478121,-4.647812 V 5.4793181 L 6.7158195,4.2841665 H 6.8486141 V 20.219522 q 0,2.257509 1.9919195,2.257509 h 4.1166334 q 1.99192,0 1.99192,-2.257509 V 5.4793181 l 2.523098,-1.1951516 h 0.132794 V 20.219522 q 0,2.257509 1.99192,2.257509 h 4.116633 q 1.99192,0 1.99192,-2.257509 V 5.4793181 L 28.22855,4.2841665 h 0.132794 V 20.219522 q 0,4.647812 -4.647812,4.647812 h -4.116633 q -2.390304,0 -3.319866,-1.274828 -1.062357,1.274828 -3.319866,1.274828 z" />
    <path
       id="path827"
       style="font-style:normal;font-variant:normal;font-weight:normal;font-stretch:normal;font-size:27.19634056px;font-family:'Nova Square';-inkscape-font-specification:'Nova Square';stroke-width:0.71355444"
       d="m 36.992995,24.867334 q -3.983839,0 -3.983839,-3.983839 v -6.639731 q 0,-3.983839 3.983839,-3.983839 h 3.054277 q 3.983838,0 3.983838,3.983839 v 0.703811 l -8.326223,6.44054 q 0.185913,1.088916 1.288108,1.088916 h 3.054277 q 1.327946,0 1.327946,-1.593536 v -0.703811 l 2.523098,-1.195152 h 0.132794 v 1.898963 q 0,3.983839 -3.983838,3.983839 z m -1.327946,-6.254627 5.696889,-4.594694 q -0.07968,-1.367785 -1.314666,-1.367785 h -3.054277 q -1.327946,0 -1.327946,1.593536 z" />
    <path
       id="path829"
       style="font-style:normal;font-variant:normal;font-weight:normal;font-stretch:normal;font-size:27.19634056px;font-family:'Nova Square';-inkscape-font-specification:'Nova Square';stroke-width:0.71355444"
       d="m 52.689321,22.477031 h 3.054276 q 1.327946,0 1.327946,-1.593536 v -6.639731 q 0,-1.593536 -1.327946,-1.593536 h -3.054276 q -1.327947,0 -1.327947,1.593536 v 6.639731 q 0,1.593536 1.327947,1.593536 z m 0,2.390303 q -3.983839,0 -3.983839,-3.983839 V 5.4793181 L 51.22858,4.2841665 h 0.132794 v 6.3874215 q 0.531179,-0.411663 1.327947,-0.411663 h 3.054276 q 3.983839,0 3.983839,3.983839 v 6.639731 q 0,3.983839 -3.983839,3.983839 z" />
    <path
       id="path831"
       style="font-style:normal;font-variant:normal;font-weight:normal;font-stretch:normal;font-size:27.19634056px;font-family:'Nova Square';-inkscape-font-specification:'Nova Square';stroke-width:0.71355444"
       d="m 67.296729,24.867334 q -3.983839,0 -3.983839,-3.983839 v -0.47806 l 2.523098,-1.195152 h 0.132795 v 1.673212 q 0,1.593536 1.327946,1.593536 h 3.054277 q 1.327946,0 1.327946,-1.593536 v -1.049077 q 0,-1.593536 -1.327946,-1.593536 h -2.49654 q -3.983838,0 -3.983838,-3.997118 0,-3.983839 3.983838,-3.983839 h 1.553698 q 3.983839,0 3.983839,3.21363 l -2.523098,1.195152 H 70.73611 v -0.424943 q 0,-1.593536 -1.327946,-1.593536 h -1.553698 q -1.327946,0 -1.327946,1.593536 0,1.606815 1.327946,1.606815 h 2.49654 q 3.983839,0 3.983839,3.983839 v 1.049077 q 0,3.983839 -3.983839,3.983839 z" />
    <path
       id="path833"
       style="font-style:normal;font-variant:normal;font-weight:normal;font-stretch:normal;font-size:27.19634056px;font-family:'Nova Square';-inkscape-font-specification:'Nova Square';stroke-width:0.71355444"
       d="M 79.699751,25.398513 V 12.676787 h -3.412822 v -0.132794 l 1.075637,-2.284068 h 2.337185 V 5.4793181 l 2.523098,-1.1951516 h 0.132795 v 5.9757585 h 3.412822 v 0.132795 l -1.075637,2.284067 h -2.337185 v 11.526574 l -2.523098,1.195152 z" />
    <path
       id="path835"
       style="font-style:normal;font-variant:normal;font-weight:normal;font-stretch:normal;font-size:27.19634056px;font-family:'Nova Square';-inkscape-font-specification:'Nova Square';stroke-width:0.71355444"
       d="m 92.076209,24.867334 q -3.983839,0 -3.983839,-3.983839 v -6.639731 q 0,-3.983839 3.983839,-3.983839 h 3.054276 q 3.983839,0 3.983839,3.983839 v 0.703811 l -8.326223,6.44054 q 0.185912,1.088916 1.288108,1.088916 h 3.054276 q 1.327947,0 1.327947,-1.593536 v -0.703811 l 2.523098,-1.195152 h 0.132794 v 1.898963 q 0,3.983839 -3.983839,3.983839 z m -1.327946,-6.254627 5.696889,-4.594694 q -0.07968,-1.367785 -1.314667,-1.367785 h -3.054276 q -1.327946,0 -1.327946,1.593536 z" />
    <path
       id="path837"
       style="font-style:normal;font-variant:normal;font-weight:normal;font-stretch:normal;font-size:27.19634056px;font-family:'Nova Square';-inkscape-font-specification:'Nova Square';stroke-width:0.71355444"
       d="M 103.12472,25.398513 V 14.243764 q 0,-3.983839 3.98384,-3.983839 h 3.31986 v 0.132795 l -1.06235,2.257508 h -2.25751 q -1.32795,0 -1.32795,1.593536 v 9.959597 l -2.5231,1.195152 z" />
    <path
       id="path839"
       style="font-style:normal;font-variant:normal;font-weight:normal;font-stretch:normal;font-size:27.19634056px;font-family:'Nova Square';-inkscape-font-specification:'Nova Square';stroke-width:0.71355444"
       d="m 128.62129,24.867334 q -4.64781,0 -4.64781,-4.647812 V 9.4631571 q 0,-4.6478121 4.64781,-4.6478121 h 4.11663 q 4.64781,0 4.64781,4.6478121 v 1.4607409 l -2.52309,1.195152 h -0.1328 V 9.4631571 q 0,-2.2575087 -1.99192,-2.2575087 h -4.11663 q -1.99192,0 -1.99192,2.2575087 V 20.219522 q 0,2.257509 1.99192,2.257509 h 4.11663 q 1.99192,0 1.99192,-2.257509 v -1.460741 l 2.5231,-1.195151 h 0.13279 v 2.655892 q 0,4.647812 -4.64781,4.647812 z" />
    <path
       id="path841"
       style="font-style:normal;font-variant:normal;font-weight:normal;font-stretch:normal;font-size:27.19634056px;font-family:'Nova Square';-inkscape-font-specification:'Nova Square';stroke-width:0.71355444"
       d="M 142.06011,25.398513 V 14.243764 q 0,-3.983839 3.98383,-3.983839 h 3.31987 v 0.132795 l -1.06236,2.257508 h -2.25751 q -1.32794,0 -1.32794,1.593536 v 9.959597 l -2.5231,1.195152 z" />
    <path
       id="path843"
       style="font-style:normal;font-variant:normal;font-weight:normal;font-stretch:normal;font-size:27.19634056px;font-family:'Nova Square';-inkscape-font-specification:'Nova Square';stroke-width:0.71355444"
       d="m 155.60516,24.867334 q -3.98384,0 -3.98384,-3.983839 v -6.639731 q 0,-3.983839 3.98384,-3.983839 h 3.05428 q 3.98384,0 3.98384,3.983839 v 0.703811 l -8.32623,6.44054 q 0.18592,1.088916 1.28811,1.088916 h 3.05428 q 1.32795,0 1.32795,-1.593536 v -0.703811 l 2.52309,-1.195152 h 0.1328 v 1.898963 q 0,3.983839 -3.98384,3.983839 z m -1.32794,-6.254627 5.69689,-4.594694 q -0.0797,-1.367785 -1.31467,-1.367785 h -3.05428 q -1.32794,0 -1.32794,1.593536 z" />
    <path
       id="path845"
       style="font-style:normal;font-variant:normal;font-weight:normal;font-stretch:normal;font-size:27.19634056px;font-family:'Nova Square';-inkscape-font-specification:'Nova Square';stroke-width:0.71355444"
       d="m 170.63751,24.867334 q -3.98384,0 -3.98384,-3.983839 v -9.959597 l 2.5231,-1.1951516 h 0.13279 V 20.883495 q 0,1.593536 1.32795,1.593536 h 3.05428 q 1.32794,0 1.32794,-1.593536 v -9.959597 l 2.5231,-1.1951516 h 0.1328 V 20.883495 q 0,1.593536 1.32794,1.593536 h 3.05428 q 1.32795,0 1.32795,-1.593536 v -9.959597 l 2.52309,-1.1951516 h 0.1328 V 20.883495 q 0,3.983839 -3.98384,3.983839 h -3.05428 q -1.83256,0 -2.65589,-0.98268 -0.87644,0.98268 -2.65589,0.98268 z" />
  </g>
</svg>
